HIERARCHY
ROOT Hips
{
	OFFSET 0.00 0.00 0.00
	CHANNELS 6 Xposition Yposition Zposition Xrotation Yrotation Zrotation
	JOINT RightUpLeg
	{
		OFFSET -4.47808 0.00000 0.00000
		CHANNELS 3 Xrotation Yrotation Zrotation
		JOINT RightLeg
		{
			OFFSET 0.00000 -16.40577 0.00000
			CHANNELS 3 Xrotation Yrotation Zrotation
			JOINT RightFoot
			{
				OFFSET 0.00000 -14.64414 0.00000
				CHANNELS 3 Xrotation Yrotation Zrotation
				JOINT RightToeBase
				{
					OFFSET 0.00000 -1.50274 5.60831
					CHANNELS 3 Xrotation Yrotation Zrotation
					End Site
					{
						OFFSET 0.00000 0.00000 2.95275
					}
				}
			}
		}
	}
	JOINT LeftUpLeg
	{
		OFFSET 4.47808 0.00000 0.00000
		CHANNELS 3 Xrotation Yrotation Zrotation
		JOINT LeftLeg
		{
			OFFSET 0.00000 -16.40577 0.00000
			CHANNELS 3 Xrotation Yrotation Zrotation
			JOINT LeftFoot
			{
				OFFSET 0.00000 -14.64414 0.00000
				CHANNELS 3 Xrotation Yrotation Zrotation
				JOINT LeftToeBase
				{
					OFFSET 0.00000 -1.50274 5.60831
					CHANNELS 3 Xrotation Yrotation Zrotation
					End Site
					{
						OFFSET 0.00000 0.00000 2.95275
					}
				}
			}
		}
	}
	JOINT Spine
	{
		OFFSET 0.00000 6.06821 0.00000
		CHANNELS 3 Xrotation Yrotation Zrotation
		JOINT RightShoulder
		{
			OFFSET 0.00000 10.01392 0.00000
			CHANNELS 3 Xrotation Yrotation Zrotation
			JOINT RightArm
			{
				OFFSET -7.19022 0.00000 0.00000
				CHANNELS 3 Xrotation Yrotation Zrotation
				JOINT RightForeArm
				{
					OFFSET -10.17747 0.00000 0.00000
					CHANNELS 3 Yrotation Zrotation Xrotation
					JOINT RightHand
					{
						OFFSET -8.39211 0.00000 0.00000
						CHANNELS 3 Xrotation Yrotation Zrotation
						End Site
						{
							OFFSET -3.93700 0.00000 0.00000
						}
						JOINT RightHandThumb1
						{
							OFFSET 0.00000 0.00000 0.00000
							CHANNELS 3 Xrotation Zrotation Yrotation
							End Site
							{
								OFFSET 0.00000 0.00000 3.93700
							}
						}
					}
				}
			}
		}
		JOINT LeftShoulder
		{
			OFFSET 0.00000 10.01392 0.00000
			CHANNELS 3 Xrotation Yrotation Zrotation
			JOINT LeftArm
			{
				OFFSET 7.19022 0.00000 0.00000
				CHANNELS 3 Xrotation Yrotation Zrotation
				JOINT LeftForeArm
				{
					OFFSET 10.17747 0.00000 0.00000
					CHANNELS 3 Yrotation Zrotation Xrotation
					JOINT LeftHand
					{
						OFFSET 8.39211 0.00000 0.00000
						CHANNELS 3 Xrotation Yrotation Zrotation
						End Site
						{
							OFFSET 3.93700 0.00000 0.00000
						}
						JOINT LeftHandThumb1
						{
							OFFSET 0.00000 0.00000 0.00000
							CHANNELS 3 Xrotation Zrotation Yrotation
							End Site
							{
								OFFSET 0.00000 0.00000 3.93700
							}
						}
					}
				}
			}
		}
		JOINT Head
		{
			OFFSET 0.00000 15.77748 0.00000
			CHANNELS 3 Xrotation Yrotation Zrotation
			End Site
			{
				OFFSET 0.00000 4.52755 0.00000
			}
		}
	}
}
MOTION
Frames: 19
Frame Time: 0.008333
 -3.3019 33.0059 -1.4293 9.6157 -1.9037 2.8458 -2.5520 -3.5866 -3.4600 -1.3782 -0.0000 0.0000 -11.7706 -5.3028 2.5069 7.3292 0.0000 -0.0000 -2.1006 2.6873 2.2964 0.8003 0.0000 -0.0000 -10.0320 11.1159 -15.0543 8.4788 -0.0000 0.0000 -10.7338 -2.2043 -1.6398 2.6836 -23.3550 -25.8662 -33.3714 -0.7465 35.7193 14.3902 0.0000 12.0723 -1.2111 8.9941 7.7013 32.8623 0.0000 -24.3270 -7.0584 24.3809 32.5153 -29.9043 1.5334 -33.4893 -1.7644 0.0000 21.4840 -0.1218 -0.6387 -10.7924 33.1476 -0.0000 26.2537 -2.8037 5.6153 2.2854
 -3.3011 33.0054 -1.4263 9.5893 -1.9072 2.8463 -2.5235 -3.5858 -3.4620 -1.3722 -0.0000 -0.0000 -11.7773 -5.3060 2.5165 7.3185 -0.0000 0.0000 -2.0640 2.6891 2.2950 0.7908 0.0000 0.0000 -10.0366 11.1167 -15.0697 8.5316 0.0000 0.0000 -10.7125 -2.1890 -1.6407 2.6867 -23.3749 -25.8661 -33.3676 -0.7586 35.7342 14.3830 0.0000 12.0510 -1.2277 9.0096 7.7926 32.8623 0.0000 -24.3270 -7.0386 24.4028 32.5035 -29.9447 1.5306 -33.4975 -1.7542 0.0000 21.4753 -0.1255 -0.6569 -10.8130 33.1476 -0.0000 26.2537 -2.8011 5.6129 2.2770
 -3.2993 33.0049 -1.4253 9.5750 -1.9068 2.8471 -2.5145 -3.5773 -3.4647 -1.3553 -0.0000 -0.0000 -11.7935 -5.3262 2.5226 7.3059 -0.0000 0.0000 -2.0559 2.6989 2.2939 0.8073 -0.0000 -0.0000 -10.0492 11.0982 -15.0838 8.5293 0.0000 -0.0000 -10.7031 -2.1911 -1.6350 2.6833 -23.3688 -25.8760 -33.3570 -0.7705 35.7418 14.3677 0.0000 12.0541 -1.2146 9.0538 7.6734 32.8623 0.0000 -24.3270 -7.0405 24.4058 32.4944 -29.9281 1.5370 -33.4975 -1.7660 0.0000 21.4757 -0.1214 -0.6344 -10.8372 33.1476 -0.0000 26.2537 -2.7910 5.6161 2.2532
 -3.2978 33.0043 -1.4235 9.5550 -1.9073 2.8487 -2.4936 -3.5771 -3.4686 -1.3505 0.0000 -0.0000 -11.8083 -5.3270 2.5108 7.3672 -0.0000 -0.0000 -2.0367 2.7075 2.2914 0.8103 0.0000 0.0000 -10.0726 11.0860 -15.0357 8.6231 -0.0000 -0.0000 -10.6887 -2.1967 -1.6320 2.6868 -23.3604 -25.8828 -33.3386 -0.7848 35.7458 14.3778 0.0000 12.0199 -1.2219 9.0354 7.7346 32.8623 0.0000 -24.3270 -7.0457 24.4096 32.4882 -29.9105 1.5439 -33.4930 -1.7762 0.0000 21.4552 -0.1152 -0.5965 -10.9351 33.1476 -0.0000 26.2537 -2.7839 5.6263 2.2411
 -3.2954 33.0038 -1.4225 9.5403 -1.9068 2.8521 -2.4840 -3.5837 -3.4782 -1.3376 -0.0000 0.0000 -11.8118 -5.3181 2.5189 7.3054 -0.0000 0.0000 -2.0224 2.6956 2.2833 0.8142 -0.0000 -0.0000 -10.0785 11.0903 -15.0044 8.6030 0.0000 -0.0000 -10.6763 -2.1834 -1.6311 2.6927 -23.3747 -25.8873 -33.3325 -0.8040 35.7590 14.3820 0.0000 12.0405 -1.2262 9.0511 7.7480 32.8623 0.0000 -24.3270 -7.0592 24.4025 32.4961 -29.9376 1.5735 -33.5152 -1.7651 0.0000 21.4802 -0.1193 -0.6161 -10.9619 33.1476 -0.0000 26.2537 -2.7843 5.6176 2.2216
 -3.2941 33.0036 -1.4220 9.5267 -1.9167 2.8504 -2.4800 -3.5651 -3.4779 -1.3154 0.0000 -0.0000 -11.8263 -5.3278 2.5065 7.3260 -0.0000 0.0000 -2.0119 2.7039 2.2839 0.8285 -0.0000 -0.0000 -10.0922 11.0861 -15.0014 8.5892 0.0000 0.0000 -10.6639 -2.1716 -1.6248 2.7056 -23.3792 -25.8725 -33.3614 -0.8104 35.7535 14.3763 0.0000 12.0206 -1.2265 9.0121 7.7828 32.8623 0.0000 -24.3270 -7.0402 24.4150 32.4875 -29.9413 1.5730 -33.5280 -1.7632 0.0000 21.4787 -0.1199 -0.6161 -11.0137 33.1476 -0.0000 26.2537 -2.7768 5.6208 2.2166
 -3.2924 33.0033 -1.4208 9.5135 -1.9074 2.8508 -2.4646 -3.5781 -3.4824 -1.3156 -0.0000 -0.0000 -11.8310 -5.3277 2.5015 7.2963 -0.0000 0.0000 -2.0019 2.6897 2.2793 0.8365 -0.0000 -0.0000 -10.1122 11.0911 -14.9745 8.6676 -0.0000 0.0000 -10.6580 -2.1738 -1.6245 2.7032 -23.3814 -25.8723 -33.3436 -0.8061 35.7551 14.3725 0.0000 12.0302 -1.2298 9.0161 7.8002 32.8623 0.0000 -24.3270 -7.0410 24.4105 32.5043 -29.9459 1.5979 -33.5598 -1.7533 0.0000 21.5083 -0.1234 -0.6324 -11.0460 33.1476 -0.0000 26.2537 -2.7690 5.6119 2.2093
 -3.2911 33.0031 -1.4203 9.4983 -1.9211 2.8541 -2.4561 -3.5569 -3.4878 -1.3007 -0.0000 -0.0000 -11.8422 -5.3428 2.5109 7.3139 -0.0000 0.0000 -1.9871 2.6921 2.2722 0.8537 -0.0000 -0.0000 -10.0990 11.1056 -15.0697 8.5239 0.0000 0.0000 -10.6435 -2.1567 -1.6217 2.7156 -23.3876 -25.8706 -33.3508 -0.8150 35.7616 14.3803 0.0000 12.0281 -1.2236 9.0113 7.7651 32.8623 0.0000 -24.3270 -7.0316 24.4088 32.5024 -29.8846 1.5823 -33.5761 -1.7565 0.0000 21.4714 -0.1288 -0.6600 -11.0440 33.1476 -0.0000 26.2537 -2.7630 5.6224 2.1969
 -3.2893 33.0027 -1.4191 9.4790 -1.9196 2.8577 -2.4416 -3.5719 -3.4966 -1.2892 0.0000 0.0000 -11.8540 -5.3302 2.5197 7.2760 0.0000 -0.0000 -1.9675 2.6931 2.2658 0.8504 -0.0000 -0.0000 -10.1317 11.0931 -14.9497 8.6745 -0.0000 0.0000 -10.6253 -2.1495 -1.6237 2.7180 -23.3901 -25.8700 -33.3356 -0.8177 35.7616 14.3797 0.0000 12.0354 -1.2288 9.0316 7.7810 32.8623 0.0000 -24.3270 -7.0373 24.4085 32.5111 -29.8701 1.5782 -33.6018 -1.7442 0.0000 21.4654 -0.1345 -0.6886 -11.0510 33.1476 -0.0000 26.2537 -2.7666 5.6247 2.1962
 -3.2880 33.0020 -1.4190 9.4670 -1.9208 2.8509 -2.4319 -3.5643 -3.4927 -1.2825 -0.0000 -0.0000 -11.8641 -5.3408 2.5150 7.3574 -0.0000 0.0000 -1.9642 2.7205 2.2630 0.8522 -0.0000 -0.0000 -10.1334 11.1295 -15.0655 8.7364 0.0000 -0.0000 -10.6149 -2.1493 -1.6085 2.7152 -23.3911 -25.8830 -33.3411 -0.8271 35.7745 14.3850 0.0000 12.0556 -1.2302 9.0182 7.8012 32.8623 0.0000 -24.3270 -7.0349 24.4082 32.5118 -29.8702 1.5927 -33.6150 -1.7205 0.0000 21.4489 -0.1311 -0.6726 -11.0286 33.1476 -0.0000 26.2537 -2.7634 5.6332 2.1802
 -3.2869 33.0021 -1.4186 9.4569 -1.9221 2.8553 -2.4271 -3.5857 -3.4987 -1.2766 0.0000 0.0000 -11.8629 -5.3189 2.5238 7.3211 0.0000 -0.0000 -1.9565 2.6750 2.2632 0.8770 0.0000 0.0000 -10.1484 11.1149 -14.9568 8.6238 0.0000 -0.0000 -10.6077 -2.1527 -1.6144 2.7308 -23.3964 -25.8773 -33.3447 -0.8125 35.7906 14.3698 0.0000 12.0952 -1.2204 9.0436 7.7185 32.8623 0.0000 -24.3270 -7.0374 24.4111 32.5203 -29.8725 1.6172 -33.6239 -1.7220 0.0000 21.4392 -0.1302 -0.6672 -11.0460 33.1476 -0.0000 26.2537 -2.7605 5.6435 2.1811
 -3.2856 33.0020 -1.4181 9.4453 -1.9255 2.8574 -2.4153 -3.5893 -3.5035 -1.2760 -0.0000 -0.0000 -11.8726 -5.3097 2.5152 7.3556 -0.0000 0.0000 -1.9429 2.6715 2.2585 0.8781 0.0000 -0.0000 -10.1463 11.1172 -14.9492 8.6321 0.0000 -0.0000 -10.5963 -2.1480 -1.6135 2.7187 -23.3975 -25.8851 -33.3375 -0.8123 35.8018 14.3700 0.0000 12.0892 -1.2202 9.0304 7.7278 32.8623 0.0000 -24.3270 -7.0510 24.4130 32.5244 -29.9029 1.6450 -33.6321 -1.7165 0.0000 21.4653 -0.1297 -0.6636 -11.0556 33.1476 -0.0000 26.2537 -2.7680 5.6445 2.1771
 -3.2845 33.0019 -1.4171 9.4295 -1.9255 2.8563 -2.3958 -3.5793 -3.5046 -1.2789 0.0000 0.0000 -11.8659 -5.3224 2.5077 7.2810 -0.0000 -0.0000 -1.9282 2.6707 2.2574 0.8826 0.0000 0.0000 -10.1493 11.1160 -14.9613 8.6000 -0.0000 0.0000 -10.5845 -2.1512 -1.6144 2.7332 -23.3912 -25.8793 -33.3316 -0.8109 35.8004 14.3695 0.0000 12.0825 -1.2317 9.0581 7.7767 32.8623 0.0000 -24.3270 -7.0551 24.4120 32.5290 -29.9120 1.6619 -33.6331 -1.7079 0.0000 21.4394 -0.1301 -0.6648 -11.0692 33.1476 -0.0000 26.2537 -2.7694 5.6662 2.1887
 -3.2822 33.0017 -1.4188 9.4283 -1.9339 2.8603 -2.4056 -3.5676 -3.5132 -1.2655 -0.0000 0.0000 -11.8727 -5.3249 2.5088 7.2975 0.0000 -0.0000 -1.9318 2.6602 2.2481 0.9007 0.0000 0.0000 -10.1396 11.1394 -15.0422 8.5262 0.0000 0.0000 -10.5819 -2.1403 -1.6119 2.7362 -23.3946 -25.8879 -33.3336 -0.8060 35.8082 14.3645 0.0000 12.0800 -1.2285 9.0315 7.7793 32.8623 0.0000 -24.3270 -7.0561 24.4195 32.5264 -29.9454 1.6773 -33.6373 -1.6875 0.0000 21.4457 -0.1346 -0.6874 -11.0792 33.1476 -0.0000 26.2537 -2.7712 5.6664 2.1870
 -3.2804 33.0018 -1.4192 9.4212 -1.9344 2.8632 -2.4056 -3.5729 -3.5200 -1.2525 -0.0000 0.0000 -11.8827 -5.3230 2.5168 7.3271 0.0000 -0.0000 -1.9289 2.6620 2.2410 0.9085 -0.0000 0.0000 -10.1432 11.1432 -15.0373 8.5172 -0.0000 -0.0000 -10.5772 -2.1446 -1.6129 2.7170 -23.3737 -25.9044 -33.3068 -0.8119 35.8166 14.3646 0.0000 12.0894 -1.2353 9.0529 7.8035 32.8623 0.0000 -24.3270 -7.0558 24.4164 32.5295 -29.9539 1.7166 -33.6353 -1.7133 0.0000 21.4401 -0.1325 -0.6768 -11.0735 33.1476 -0.0000 26.2537 -2.7725 5.6623 2.1847
 -3.2795 33.0018 -1.4191 9.4133 -1.9419 2.8632 -2.3972 -3.5769 -3.5212 -1.2578 -0.0000 -0.0000 -11.8747 -5.3094 2.5070 7.3154 0.0000 -0.0000 -1.9205 2.6700 2.2410 0.9008 0.0000 0.0000 -10.1590 11.1305 -14.9567 8.6275 -0.0000 -0.0000 -10.5717 -2.1378 -1.6155 2.7130 -23.3622 -25.8992 -33.2828 -0.7918 35.8045 14.3540 0.0000 12.0228 -1.2547 9.0702 7.9097 32.8623 0.0000 -24.3270 -7.0496 24.4364 32.5322 -30.0240 1.7321 -33.6418 -1.6937 0.0000 21.4781 -0.1309 -0.6688 -11.0771 33.1476 -0.0000 26.2537 -2.7776 5.6715 2.2004
 -3.2788 33.0018 -1.4196 9.4091 -1.9430 2.8593 -2.3949 -3.5764 -3.5180 -1.2547 0.0000 0.0000 -11.8742 -5.3167 2.5388 7.3012 -0.0000 0.0000 -1.9175 2.6708 2.2440 0.9018 0.0000 0.0000 -10.1580 11.1278 -14.9473 8.5722 0.0000 -0.0000 -10.5701 -2.1280 -1.6146 2.7155 -23.3683 -25.8943 -33.2984 -0.7970 35.8098 14.3507 0.0000 12.0560 -1.2516 9.0583 7.9006 32.8623 0.0000 -24.3270 -7.0398 24.4286 32.5332 -29.9950 1.7206 -33.6401 -1.7138 0.0000 21.4642 -0.1345 -0.6847 -11.1109 33.1476 -0.0000 26.2537 -2.7795 5.6773 2.2171
 -3.2784 33.0017 -1.4197 9.4015 -1.9454 2.8588 -2.3888 -3.5716 -3.5190 -1.2525 0.0000 -0.0000 -11.8752 -5.3142 2.5135 7.3014 -0.0000 -0.0000 -1.9090 2.6630 2.2422 0.9095 -0.0000 -0.0000 -10.1494 11.1441 -15.0184 8.5296 0.0000 -0.0000 -10.5659 -2.1220 -1.6189 2.7203 -23.3672 -25.8958 -33.2926 -0.8026 35.8256 14.3555 0.0000 12.1720 -1.2234 9.0824 7.7044 32.8623 0.0000 -24.3270 -7.0475 24.4167 32.5475 -29.9842 1.7291 -33.6384 -1.7183 0.0000 21.4843 -0.1350 -0.6872 -11.1159 33.1476 -0.0000 26.2537 -2.7768 5.6664 2.2288
 -3.2762 33.0018 -1.4215 9.4000 -1.9554 2.8576 -2.3917 -3.5496 -3.5210 -1.2508 0.0000 0.0000 -11.8746 -5.3234 2.5149 7.3152 -0.0000 -0.0000 -1.9095 2.6735 2.2399 0.9039 -0.0000 0.0000 -10.1671 11.1446 -14.9451 8.6062 0.0000 0.0000 -10.5589 -2.1097 -1.6119 2.7236 -23.3783 -25.9032 -33.3111 -0.7952 35.8388 14.3413 0.0000 12.1792 -1.2240 9.0940 7.6984 32.8623 0.0000 -24.3270 -7.0427 24.4212 32.5456 -29.9784 1.7230 -33.6368 -1.7194 0.0000 21.4798 -0.1362 -0.6930 -11.1176 33.1476 -0.0000 26.2537 -2.7933 5.6640 2.2332
